<?xml version="1.0" encoding="utf-8"?>
<!-- Generator: Adobe Illustrator 15.0.0, SVG Export Plug-In . SVG Version: 6.00 Build 0)  -->
<!DOCTYPE svg [
	<!ENTITY ns_flows "http://ns.adobe.com/Flows/1.0/">
	<!ENTITY ns_extend "http://ns.adobe.com/Extensibility/1.0/">
	<!ENTITY ns_ai "http://ns.adobe.com/AdobeIllustrator/10.0/">
	<!ENTITY ns_graphs "http://ns.adobe.com/Graphs/1.0/">
]>
<svg version="1.2" baseProfile="tiny"
	 id="Logo_4_light_grounds_1_" xmlns:x="&ns_extend;" xmlns:i="&ns_ai;" xmlns:graph="&ns_graphs;"
	 xmlns="http://www.w3.org/2000/svg" xmlns:xlink="http://www.w3.org/1999/xlink" xmlns:a="http://ns.adobe.com/AdobeSVGViewerExtensions/3.0/"
	 x="0px" y="0px" width="107.76px" height="119.04px" viewBox="0 0 107.76 119.04" xml:space="preserve">
<g id="BG">
	<circle fill-rule="evenodd" fill="#FFFFFF" cx="53.88" cy="53.16" r="39.641"/>
</g>
<g id="ring_1">
	<path fill-rule="evenodd" fill="#333333" d="M53.88,15c-21.075,0-38.16,17.084-38.16,38.16c0,21.076,17.085,38.16,38.16,38.16
		c21.076,0,38.16-17.084,38.16-38.16C92.04,32.084,74.956,15,53.88,15z M53.88,88.08c-19.286,0-34.92-15.635-34.92-34.92
		s15.634-34.92,34.92-34.92S88.8,33.874,88.8,53.16S73.166,88.08,53.88,88.08z"/>
</g>
<g id="ring_2">
	<path fill-rule="evenodd" fill="#555555" d="M53.88,10.918c-23.329,0-42.242,18.912-42.242,42.241
		c0,23.33,18.913,42.242,42.242,42.242c23.33,0,42.242-18.912,42.242-42.242C96.122,29.831,77.209,10.918,53.88,10.918z
		 M53.88,93.823c-22.458,0-40.664-18.205-40.664-40.664c0-22.458,18.206-40.664,40.664-40.664c22.458,0,40.664,18.206,40.664,40.664
		C94.543,75.618,76.338,93.823,53.88,93.823z"/>
</g>
<g id="ring3">
	<path fill-rule="evenodd" fill="#222222" d="M53.856,8.373c-24.723,0-44.765,20.052-44.765,44.787
		c0,24.735,20.042,44.788,44.765,44.788c24.722,0,44.764-20.053,44.764-44.788C98.621,28.424,78.579,8.373,53.856,8.373z
		 M53.856,97.172c-24.295,0-43.99-19.705-43.99-44.012c0-24.308,19.695-44.013,43.99-44.013c24.294,0,43.99,19.705,43.99,44.013
		C97.846,77.467,78.151,97.172,53.856,97.172z"/>
</g>
<g id="ring_4">
	<path fill-rule="evenodd" fill="#444444" d="M53.88,1.211c-28.69,0-51.948,23.258-51.948,51.948
		c0,28.69,23.258,51.949,51.948,51.949c28.69,0,51.949-23.259,51.949-51.949C105.829,24.469,82.57,1.211,53.88,1.211z
		 M53.88,102.683c-27.351,0-49.523-22.172-49.523-49.523c0-27.351,22.172-49.523,49.523-49.523
		c27.351,0,49.523,22.172,49.523,49.523C103.403,80.511,81.231,102.683,53.88,102.683z"/>
</g>
<g id="Wiimmfi">
	<path fill-rule="evenodd" fill="#333333" d="M35.719,107.719c-0.365,0-0.678,0.427-0.94,1.282
		c-0.182,0.649-0.302,1.104-0.359,1.367c-0.103,0.398-0.239,0.929-0.41,1.59l-0.257,1.025c-0.103,0.399-0.251,0.695-0.444,0.889
		h-0.564c-0.273-0.376-0.484-0.889-0.632-1.538l-0.41-1.744c-0.193-0.854-0.33-1.447-0.41-1.777
		c-0.297-1.117-0.729-1.675-1.299-1.675c-0.536,0-0.969,0.587-1.299,1.76c-0.422,1.585-0.707,2.679-0.854,3.282
		c-0.308,1.186-0.655,1.778-1.042,1.778c-0.399,0-0.724-0.553-0.974-1.659c-0.329-1.481-0.549-2.508-0.663-3.078
		c-0.252-1.104-0.589-1.656-1.013-1.656c-0.366,0-0.549,0.308-0.549,0.923c0,0.16,0.228,1.191,0.684,3.095
		c0.479,2.017,0.9,3.641,1.265,4.871c0.205,0.695,0.576,1.043,1.111,1.043c0.57,0,1.02-0.575,1.351-1.727
		c0.41-1.55,0.689-2.621,0.837-3.214c0.296-1.14,0.649-1.709,1.06-1.709c0.387,0,0.661,0.324,0.82,0.975
		c0.125,0.615,0.216,1.077,0.273,1.385c0.25,1.253,0.49,2.216,0.718,2.889c0.342,0.991,0.735,1.487,1.179,1.487
		c0.205,0,0.456-0.183,0.752-0.547c0.262-0.319,0.433-0.599,0.513-0.838c0.33-1.061,0.769-2.575,1.316-4.547
		c0.547-1.972,0.821-3.015,0.821-3.129c0-0.182-0.054-0.361-0.163-0.538S35.89,107.719,35.719,107.719z M40.738,109.718h-0.564
		c-0.251,0.228-0.388,0.461-0.41,0.7c-0.012,0.775-0.017,1.505-0.017,2.188v0.359c-0.023,0.239-0.035,0.45-0.035,0.632
		c0,1.334,0.251,2,0.752,2c0.364,0,0.592-0.45,0.684-1.351c0.022-0.228,0.034-0.774,0.034-1.641c0-1.14-0.012-1.841-0.034-2.103
		C41,110.15,40.863,109.889,40.738,109.718z M46.1,109.718h-0.564c-0.251,0.228-0.387,0.461-0.41,0.7
		c-0.011,0.775-0.017,1.505-0.017,2.188v0.359c-0.023,0.239-0.034,0.45-0.034,0.632c0,1.334,0.25,2,0.752,2
		c0.365,0,0.593-0.45,0.684-1.351c0.022-0.228,0.034-0.774,0.034-1.641c0-1.14-0.012-1.841-0.034-2.103
		C46.362,110.15,46.225,109.889,46.1,109.718z M58.958,109.068c-0.4,0-0.85,0.14-1.347,0.419s-0.877,0.419-1.14,0.419
		c-0.183,0-0.565-0.14-1.148-0.419s-1.058-0.419-1.423-0.419c-0.435,0-1.469,0.212-3.103,0.633
		c-0.538,0.137-0.806,0.752-0.806,1.847v0.495c0,0.037,0.017,0.079,0.023,0.118c-0.008,0.325-0.016,0.819-0.023,1.506
		c-0.023,1.652,0.245,2.479,0.803,2.479c0.148,0,0.299-0.094,0.453-0.282c0.154-0.188,0.231-0.355,0.231-0.504v-2.804
		c0-0.421,0.176-0.877,0.53-1.367c0.41-0.569,0.895-0.854,1.453-0.854c0.456,0,0.866,0.217,1.231,0.649
		c0.33,0.422,0.495,0.866,0.495,1.333v3.095c0,0.137,0.083,0.293,0.248,0.47s0.316,0.265,0.453,0.265
		c0.147,0,0.305-0.094,0.47-0.282s0.248-0.357,0.248-0.506v-3.069c0-0.319,0.171-0.72,0.513-1.2c0.398-0.571,0.832-0.856,1.3-0.856
		c0.786,0,1.321,0.354,1.606,1.063c0.182,0.458,0.273,1.2,0.273,2.229v0.635c0,0.561,0.018,0.938,0.052,1.132
		c0.091,0.515,0.302,0.771,0.632,0.771c0.376,0,0.615-0.291,0.718-0.872c0.034-0.193,0.052-0.621,0.052-1.282
		c0-1.196-0.103-2.131-0.309-2.803C61.033,109.747,60.204,109.068,58.958,109.068z M50.043,112.437c0-0.056,0-0.09,0-0.139
		c0,0.001,0,0.001,0,0.002V112.437z M71.59,109.068c-0.4,0-0.849,0.14-1.346,0.419c-0.498,0.279-0.878,0.419-1.141,0.419
		c-0.183,0-0.565-0.14-1.148-0.419s-1.057-0.419-1.423-0.419c-0.435,0-1.469,0.212-3.103,0.633
		c-0.538,0.137-0.807,0.752-0.807,1.847v0.495c0,0.037,0.017,0.08,0.024,0.119c-0.008,0.326-0.017,0.819-0.024,1.505
		c-0.022,1.652,0.245,2.479,0.804,2.479c0.148,0,0.299-0.094,0.453-0.282c0.153-0.188,0.23-0.355,0.23-0.504v-2.804
		c0-0.421,0.177-0.877,0.53-1.367c0.41-0.569,0.895-0.854,1.453-0.854c0.455,0,0.865,0.217,1.23,0.649
		c0.33,0.422,0.496,0.866,0.496,1.333v3.095c0,0.137,0.082,0.293,0.248,0.47c0.165,0.177,0.315,0.265,0.452,0.265
		c0.148,0,0.306-0.094,0.471-0.282s0.248-0.357,0.248-0.506v-3.069c0-0.319,0.171-0.72,0.513-1.2
		c0.398-0.571,0.831-0.856,1.299-0.856c0.786,0,1.321,0.354,1.606,1.063c0.183,0.458,0.273,1.2,0.273,2.229v0.635
		c0,0.561,0.018,0.938,0.052,1.132c0.091,0.515,0.302,0.771,0.633,0.771c0.376,0,0.615-0.291,0.718-0.872
		c0.034-0.193,0.051-0.621,0.051-1.282c0-1.196-0.103-2.131-0.308-2.803C73.665,109.747,72.835,109.068,71.59,109.068z
		 M80.128,107.599c0.262-0.364,0.393-0.587,0.393-0.666c0-0.138-0.058-0.276-0.171-0.419c-0.114-0.143-0.239-0.214-0.376-0.214
		c-0.866,0-1.618,0.963-2.257,2.889c-0.022,0.068-0.119,0.325-0.29,0.77c-0.126,0.33-0.188,0.524-0.188,0.581
		c0,0.148,0.1,0.447,0.3,0.897c0.199,0.45,0.299,0.743,0.299,0.88v3.949c0,0.148,0.083,0.305,0.248,0.47s0.321,0.248,0.47,0.248
		c0.171,0,0.333-0.074,0.487-0.223c0.154-0.147,0.23-0.308,0.23-0.479V112.3c0-0.058,0.154-0.354,0.462-0.89
		c0.308-0.535,0.462-0.837,0.462-0.905s-0.129-0.348-0.385-0.838c-0.257-0.489-0.385-0.774-0.385-0.854
		c0-0.137,0.005-0.228,0.017-0.273L80.128,107.599z M84.766,110.504c-0.148-0.354-0.285-0.615-0.41-0.786h-0.564
		c-0.251,0.228-0.388,0.461-0.41,0.7c-0.012,0.775-0.018,1.505-0.018,2.188v0.359c-0.022,0.239-0.034,0.45-0.034,0.632
		c0,1.334,0.251,2,0.753,2c0.364,0,0.592-0.45,0.684-1.351c0.022-0.228,0.034-0.774,0.034-1.641
		C84.8,111.467,84.789,110.766,84.766,110.504z"/>
</g>
<g id="other">
	<path fill-rule="evenodd" fill="#333333" d="M76.407,61.033c-2.525-1.458-5.754-0.593-7.211,1.932
		c-1.458,2.525-0.593,5.754,1.932,7.212c2.525,1.458,5.754,0.593,7.211-1.933C79.796,65.72,78.931,62.491,76.407,61.033z
		 M82.523,47.938c-0.534-0.308-1.136-0.391-1.695-0.277V47.66c-0.018,0.004-0.025,0.006-0.043,0.01
		c0.027-0.008,0.042-0.012,0.042-0.012l0.001,0.002c1.866-0.414-2.914,0.527-6.615,1.691c-2.104,0.662-5.97,0.902-8.199,1.501
		c-2.215,0.595-5.371,1.439-7.703,5.479c-2.462,4.264-1.542,7.163-0.895,9.41c0.64,2.219,2.49,5.797,2.8,7.852
		c0.58,3.837,2.351,8.51,1.778,6.687l-0.002,0.001c0,0-0.004-0.015-0.011-0.042c0.006,0.018,0.008,0.025,0.013,0.041h0.001
		c0.182,0.541,0.555,1.021,1.088,1.329c1.162,0.671,2.307,0.001,2.978-1.161c0.353-0.609,0.41-1.309,0.218-1.933
		c0,0-0.655-2.104-1.02-3.806c-0.364-1.702-1.197-5.185-1.072-8.252c0.124-3.066,0.733-4.813,1.382-5.936
		c0.647-1.122,1.856-2.524,4.45-4.166s6.026-2.662,7.682-3.197c1.656-0.535,3.807-1.02,3.807-1.02
		c0.636-0.146,1.212-0.544,1.564-1.154C83.742,49.824,83.685,48.609,82.523,47.938z M31.116,60.614
		c-2.527,1.458-3.393,4.686-1.934,7.21s4.69,3.39,7.217,1.932c2.527-1.457,3.393-4.685,1.934-7.209
		C36.874,60.022,33.643,59.157,31.116,60.614z M41.82,50.959c-2.243-0.555-6.27-0.743-8.206-1.501
		c-3.614-1.417-8.55-2.219-6.685-1.803l0-0.002c0,0,0.015,0.004,0.042,0.012c-0.018-0.004-0.025-0.006-0.042-0.01v0.001
		c-0.561-0.113-1.163-0.031-1.697,0.277c-1.163,0.671-1.155,1.997-0.483,3.159c0.352,0.609,0.929,1.009,1.565,1.154
		c0,0,2.152,0.485,3.809,1.02c1.657,0.535,5.092,1.555,7.688,3.196c2.596,1.642,3.805,3.042,4.453,4.165s1.258,2.868,1.383,5.936
		c0.125,3.065-0.708,6.548-1.073,8.249c-0.365,1.701-1.021,3.806-1.021,3.806h0c-0.192,0.624-0.135,1.322,0.217,1.932
		c0.671,1.162,1.752,1.72,2.915,1.049c0.534-0.308,0.907-0.787,1.089-1.329h0c0.005-0.017,0.007-0.023,0.013-0.041
		c-0.007,0.028-0.01,0.042-0.01,0.042l-0.002-0.001c-0.576,1.825,1.001-2.784,1.845-6.572c0.479-2.151,2.205-5.62,2.801-7.85
		c0.592-2.215,1.44-5.37-0.894-9.409C47.065,52.174,44.092,51.521,41.82,50.959z"/>
</g>
<g id="one">
	<path fill-rule="evenodd" fill="#FF9900" d="M53.882,35.015c2.922,0,5.291-2.37,5.291-5.292c0-2.923-2.368-5.292-5.291-5.292
		c-2.922,0-5.291,2.369-5.291,5.292C48.591,32.646,50.96,35.015,53.882,35.015z M72.715,32.578l0.002,0.001
		c0,0-0.011,0.011-0.031,0.03C72.699,32.596,72.704,32.59,72.715,32.578L72.715,32.578c0.378-0.429,0.607-0.993,0.607-1.609
		c0-1.343-1.153-2-2.495-2c-0.704,0-1.338,0.299-1.782,0.778c0,0-1.495,1.622-2.786,2.79c-1.291,1.167-3.892,3.633-6.609,5.06
		c-2.719,1.427-4.537,1.773-5.833,1.773s-3.113-0.346-5.832-1.773c-2.718-1.427-5.318-3.893-6.609-5.06
		c-1.291-1.168-2.786-2.79-2.786-2.79h0c-0.444-0.479-1.078-0.778-1.782-0.778c-1.342,0-2.365,0.657-2.365,2
		c0,0.617,0.229,1.18,0.607,1.609l0,0c0.012,0.013,0.017,0.018,0.029,0.032c-0.021-0.02-0.031-0.03-0.031-0.03l0.002-0.001
		c-1.292-1.413,1.912,2.262,4.771,4.889c1.625,1.492,3.766,4.724,5.4,6.357c1.623,1.622,3.932,3.936,8.597,3.936
		c4.924,0,6.975-2.249,8.597-3.936c1.602-1.665,3.775-5.06,5.399-6.357C70.847,35.044,74.008,31.169,72.715,32.578z"/>
</g>
</svg>
